<mxfile host="Electron" modified="2023-05-21T04:55:10.683Z" agent="Mozilla/5.0 (Windows NT 10.0; Win64; x64) AppleWebKit/537.36 (KHTML, like Gecko) draw.io/21.2.8 Chrome/112.0.5615.165 Electron/24.2.0 Safari/537.36" etag="PnUF880znf8ZV-da7lv-" version="21.2.8" type="device">
  <diagram name="第 1 页" id="oXRaYotDsj17bD8chwv-">
    <mxGraphModel dx="1036" dy="606" grid="1" gridSize="10" guides="1" tooltips="1" connect="1" arrows="1" fold="1" page="1" pageScale="1" pageWidth="827" pageHeight="1169" math="0" shadow="0">
      <root>
        <mxCell id="0" />
        <mxCell id="1" parent="0" />
        <mxCell id="5KNkTZIaE9ddwxYxKbXv-1" value="&lt;font style=&quot;font-size: 14px;&quot;&gt;策划&lt;/font&gt;" style="rounded=0;whiteSpace=wrap;html=1;" parent="1" vertex="1">
          <mxGeometry x="210" y="250" width="60" height="30" as="geometry" />
        </mxCell>
        <mxCell id="5KNkTZIaE9ddwxYxKbXv-2" value="&lt;font style=&quot;font-size: 14px;&quot;&gt;工号&lt;/font&gt;" style="ellipse;whiteSpace=wrap;html=1;" parent="1" vertex="1">
          <mxGeometry x="170" y="180" width="60" height="40" as="geometry" />
        </mxCell>
        <mxCell id="5KNkTZIaE9ddwxYxKbXv-3" value="" style="endArrow=none;html=1;rounded=0;entryX=0.5;entryY=1;entryDx=0;entryDy=0;exitX=0.25;exitY=0;exitDx=0;exitDy=0;" parent="1" source="5KNkTZIaE9ddwxYxKbXv-1" target="5KNkTZIaE9ddwxYxKbXv-2" edge="1">
          <mxGeometry width="50" height="50" relative="1" as="geometry">
            <mxPoint x="120" y="310" as="sourcePoint" />
            <mxPoint x="170" y="260" as="targetPoint" />
          </mxGeometry>
        </mxCell>
        <mxCell id="5KNkTZIaE9ddwxYxKbXv-4" value="&lt;font style=&quot;font-size: 14px;&quot;&gt;薪资&lt;/font&gt;" style="ellipse;whiteSpace=wrap;html=1;" parent="1" vertex="1">
          <mxGeometry x="260" y="180" width="60" height="40" as="geometry" />
        </mxCell>
        <mxCell id="5KNkTZIaE9ddwxYxKbXv-5" value="" style="endArrow=none;html=1;rounded=0;entryX=0.5;entryY=1;entryDx=0;entryDy=0;exitX=0.75;exitY=0;exitDx=0;exitDy=0;" parent="1" source="5KNkTZIaE9ddwxYxKbXv-1" target="5KNkTZIaE9ddwxYxKbXv-4" edge="1">
          <mxGeometry width="50" height="50" relative="1" as="geometry">
            <mxPoint x="390" y="340" as="sourcePoint" />
            <mxPoint x="440" y="290" as="targetPoint" />
          </mxGeometry>
        </mxCell>
        <mxCell id="5KNkTZIaE9ddwxYxKbXv-6" value="&lt;font style=&quot;font-size: 14px;&quot;&gt;发布&lt;/font&gt;" style="rhombus;whiteSpace=wrap;html=1;" parent="1" vertex="1">
          <mxGeometry x="290" y="310" width="70" height="30" as="geometry" />
        </mxCell>
        <mxCell id="5KNkTZIaE9ddwxYxKbXv-7" value="" style="endArrow=none;html=1;rounded=0;entryX=0.5;entryY=1;entryDx=0;entryDy=0;exitX=0;exitY=0.5;exitDx=0;exitDy=0;" parent="1" source="5KNkTZIaE9ddwxYxKbXv-6" target="5KNkTZIaE9ddwxYxKbXv-1" edge="1">
          <mxGeometry width="50" height="50" relative="1" as="geometry">
            <mxPoint x="390" y="340" as="sourcePoint" />
            <mxPoint x="440" y="290" as="targetPoint" />
          </mxGeometry>
        </mxCell>
        <mxCell id="5KNkTZIaE9ddwxYxKbXv-8" value="&lt;font style=&quot;font-size: 10px;&quot;&gt;M&lt;/font&gt;" style="text;strokeColor=none;fillColor=none;html=1;fontSize=24;fontStyle=1;verticalAlign=middle;align=center;" parent="1" vertex="1">
          <mxGeometry x="260" y="280" width="40" height="20" as="geometry" />
        </mxCell>
        <mxCell id="5KNkTZIaE9ddwxYxKbXv-9" value="&lt;font style=&quot;font-size: 14px;&quot;&gt;活动&lt;/font&gt;" style="rounded=0;whiteSpace=wrap;html=1;" parent="1" vertex="1">
          <mxGeometry x="414" y="350" width="66" height="30" as="geometry" />
        </mxCell>
        <mxCell id="5KNkTZIaE9ddwxYxKbXv-10" value="" style="endArrow=none;html=1;rounded=0;entryX=1;entryY=0.5;entryDx=0;entryDy=0;exitX=0;exitY=0.5;exitDx=0;exitDy=0;" parent="1" source="5KNkTZIaE9ddwxYxKbXv-9" target="5KNkTZIaE9ddwxYxKbXv-6" edge="1">
          <mxGeometry width="50" height="50" relative="1" as="geometry">
            <mxPoint x="390" y="340" as="sourcePoint" />
            <mxPoint x="440" y="290" as="targetPoint" />
          </mxGeometry>
        </mxCell>
        <mxCell id="5KNkTZIaE9ddwxYxKbXv-11" value="&lt;font style=&quot;font-size: 10px;&quot;&gt;N&lt;/font&gt;" style="text;strokeColor=none;fillColor=none;html=1;fontSize=24;fontStyle=1;verticalAlign=middle;align=center;" parent="1" vertex="1">
          <mxGeometry x="364" y="320" width="50" height="20" as="geometry" />
        </mxCell>
        <mxCell id="5KNkTZIaE9ddwxYxKbXv-12" value="&lt;font style=&quot;font-size: 14px;&quot;&gt;来自&lt;/font&gt;" style="html=1;whiteSpace=wrap;aspect=fixed;shape=isoRectangle;" parent="1" vertex="1">
          <mxGeometry x="90" y="300" width="66.67" height="40" as="geometry" />
        </mxCell>
        <mxCell id="5KNkTZIaE9ddwxYxKbXv-13" value="" style="endArrow=none;html=1;rounded=0;entryX=0;entryY=0.75;entryDx=0;entryDy=0;exitX=0.966;exitY=0.495;exitDx=0;exitDy=0;exitPerimeter=0;" parent="1" source="5KNkTZIaE9ddwxYxKbXv-12" target="5KNkTZIaE9ddwxYxKbXv-1" edge="1">
          <mxGeometry width="50" height="50" relative="1" as="geometry">
            <mxPoint x="390" y="340" as="sourcePoint" />
            <mxPoint x="440" y="290" as="targetPoint" />
          </mxGeometry>
        </mxCell>
        <mxCell id="5KNkTZIaE9ddwxYxKbXv-14" value="&lt;font style=&quot;font-size: 10px;&quot;&gt;1&lt;/font&gt;" style="text;strokeColor=none;fillColor=none;html=1;fontSize=24;fontStyle=1;verticalAlign=middle;align=center;" parent="1" vertex="1">
          <mxGeometry x="170" y="280" width="40" height="30" as="geometry" />
        </mxCell>
        <mxCell id="5KNkTZIaE9ddwxYxKbXv-15" value="&lt;font style=&quot;font-size: 14px;&quot;&gt;公司&lt;/font&gt;" style="rounded=0;whiteSpace=wrap;html=1;" parent="1" vertex="1">
          <mxGeometry x="50" y="380" width="50" height="30" as="geometry" />
        </mxCell>
        <mxCell id="5KNkTZIaE9ddwxYxKbXv-16" value="" style="endArrow=none;html=1;rounded=0;exitX=0.5;exitY=0;exitDx=0;exitDy=0;entryX=0.018;entryY=0.555;entryDx=0;entryDy=0;entryPerimeter=0;" parent="1" source="5KNkTZIaE9ddwxYxKbXv-15" target="5KNkTZIaE9ddwxYxKbXv-12" edge="1">
          <mxGeometry width="50" height="50" relative="1" as="geometry">
            <mxPoint x="390" y="330" as="sourcePoint" />
            <mxPoint x="90" y="330" as="targetPoint" />
          </mxGeometry>
        </mxCell>
        <mxCell id="5KNkTZIaE9ddwxYxKbXv-17" value="&lt;font style=&quot;font-size: 10px;&quot;&gt;N&lt;/font&gt;" style="text;strokeColor=none;fillColor=none;html=1;fontSize=24;fontStyle=1;verticalAlign=middle;align=center;" parent="1" vertex="1">
          <mxGeometry x="80" y="340" width="30" height="20" as="geometry" />
        </mxCell>
        <mxCell id="5KNkTZIaE9ddwxYxKbXv-18" value="&lt;font style=&quot;font-size: 14px;&quot;&gt;公司名称&lt;/font&gt;" style="ellipse;whiteSpace=wrap;html=1;" parent="1" vertex="1">
          <mxGeometry x="110" y="430" width="80" height="40" as="geometry" />
        </mxCell>
        <mxCell id="5KNkTZIaE9ddwxYxKbXv-19" value="" style="endArrow=none;html=1;rounded=0;entryX=1;entryY=1;entryDx=0;entryDy=0;exitX=0.5;exitY=0;exitDx=0;exitDy=0;" parent="1" source="5KNkTZIaE9ddwxYxKbXv-18" target="5KNkTZIaE9ddwxYxKbXv-15" edge="1">
          <mxGeometry width="50" height="50" relative="1" as="geometry">
            <mxPoint x="125" y="420" as="sourcePoint" />
            <mxPoint x="175" y="370" as="targetPoint" />
          </mxGeometry>
        </mxCell>
        <mxCell id="5KNkTZIaE9ddwxYxKbXv-20" value="&lt;font style=&quot;font-size: 14px;&quot;&gt;活动名&lt;/font&gt;" style="ellipse;whiteSpace=wrap;html=1;" parent="1" vertex="1">
          <mxGeometry x="320" y="410" width="80" height="40" as="geometry" />
        </mxCell>
        <mxCell id="5KNkTZIaE9ddwxYxKbXv-21" value="" style="endArrow=none;html=1;rounded=0;entryX=0.25;entryY=1;entryDx=0;entryDy=0;exitX=0.5;exitY=0;exitDx=0;exitDy=0;" parent="1" source="5KNkTZIaE9ddwxYxKbXv-20" target="5KNkTZIaE9ddwxYxKbXv-9" edge="1">
          <mxGeometry width="50" height="50" relative="1" as="geometry">
            <mxPoint x="390" y="330" as="sourcePoint" />
            <mxPoint x="440" y="280" as="targetPoint" />
          </mxGeometry>
        </mxCell>
        <mxCell id="5KNkTZIaE9ddwxYxKbXv-22" value="&lt;font style=&quot;font-size: 14px;&quot;&gt;活动ID&lt;/font&gt;" style="ellipse;whiteSpace=wrap;html=1;" parent="1" vertex="1">
          <mxGeometry x="414" y="430" width="80" height="40" as="geometry" />
        </mxCell>
        <mxCell id="5KNkTZIaE9ddwxYxKbXv-23" value="" style="endArrow=none;html=1;rounded=0;entryX=0.5;entryY=1;entryDx=0;entryDy=0;exitX=0.5;exitY=0;exitDx=0;exitDy=0;" parent="1" source="5KNkTZIaE9ddwxYxKbXv-22" target="5KNkTZIaE9ddwxYxKbXv-9" edge="1">
          <mxGeometry width="50" height="50" relative="1" as="geometry">
            <mxPoint x="390" y="330" as="sourcePoint" />
            <mxPoint x="440" y="280" as="targetPoint" />
          </mxGeometry>
        </mxCell>
        <mxCell id="5KNkTZIaE9ddwxYxKbXv-24" value="&lt;font style=&quot;font-size: 14px;&quot;&gt;活动奖励&lt;/font&gt;" style="ellipse;whiteSpace=wrap;html=1;" parent="1" vertex="1">
          <mxGeometry x="510" y="410" width="80" height="40" as="geometry" />
        </mxCell>
        <mxCell id="5KNkTZIaE9ddwxYxKbXv-25" value="" style="endArrow=none;html=1;rounded=0;entryX=0.75;entryY=1;entryDx=0;entryDy=0;exitX=0.5;exitY=0;exitDx=0;exitDy=0;" parent="1" source="5KNkTZIaE9ddwxYxKbXv-24" target="5KNkTZIaE9ddwxYxKbXv-9" edge="1">
          <mxGeometry width="50" height="50" relative="1" as="geometry">
            <mxPoint x="390" y="330" as="sourcePoint" />
            <mxPoint x="440" y="280" as="targetPoint" />
          </mxGeometry>
        </mxCell>
        <mxCell id="5KNkTZIaE9ddwxYxKbXv-26" value="&lt;font style=&quot;font-size: 14px;&quot;&gt;更新&lt;/font&gt;" style="rhombus;whiteSpace=wrap;html=1;" parent="1" vertex="1">
          <mxGeometry x="345" y="230" width="80" height="30" as="geometry" />
        </mxCell>
        <mxCell id="5KNkTZIaE9ddwxYxKbXv-27" value="" style="endArrow=none;html=1;rounded=0;exitX=1;exitY=0.5;exitDx=0;exitDy=0;entryX=0;entryY=0.5;entryDx=0;entryDy=0;" parent="1" source="5KNkTZIaE9ddwxYxKbXv-1" target="5KNkTZIaE9ddwxYxKbXv-26" edge="1">
          <mxGeometry width="50" height="50" relative="1" as="geometry">
            <mxPoint x="390" y="330" as="sourcePoint" />
            <mxPoint x="350" y="250" as="targetPoint" />
          </mxGeometry>
        </mxCell>
        <mxCell id="5KNkTZIaE9ddwxYxKbXv-28" value="&lt;font style=&quot;font-size: 10px;&quot;&gt;M&lt;/font&gt;" style="text;strokeColor=none;fillColor=none;html=1;fontSize=24;fontStyle=1;verticalAlign=middle;align=center;" parent="1" vertex="1">
          <mxGeometry x="300" y="250" width="30" height="20" as="geometry" />
        </mxCell>
        <mxCell id="5KNkTZIaE9ddwxYxKbXv-29" value="&lt;font style=&quot;font-size: 10px;&quot;&gt;N&lt;/font&gt;" style="text;strokeColor=none;fillColor=none;html=1;fontSize=24;fontStyle=1;verticalAlign=middle;align=center;" parent="1" vertex="1">
          <mxGeometry x="410" y="250" width="50" height="30" as="geometry" />
        </mxCell>
        <mxCell id="5KNkTZIaE9ddwxYxKbXv-30" value="&lt;font style=&quot;font-size: 14px;&quot;&gt;宠物&lt;/font&gt;" style="rounded=0;whiteSpace=wrap;html=1;" parent="1" vertex="1">
          <mxGeometry x="470" y="270" width="60" height="30" as="geometry" />
        </mxCell>
        <mxCell id="5KNkTZIaE9ddwxYxKbXv-31" value="" style="endArrow=none;html=1;rounded=0;entryX=1;entryY=0.5;entryDx=0;entryDy=0;exitX=0;exitY=0.5;exitDx=0;exitDy=0;" parent="1" source="5KNkTZIaE9ddwxYxKbXv-30" target="5KNkTZIaE9ddwxYxKbXv-26" edge="1">
          <mxGeometry width="50" height="50" relative="1" as="geometry">
            <mxPoint x="390" y="330" as="sourcePoint" />
            <mxPoint x="430" y="250" as="targetPoint" />
          </mxGeometry>
        </mxCell>
        <mxCell id="5KNkTZIaE9ddwxYxKbXv-32" value="&lt;font style=&quot;font-size: 14px;&quot;&gt;种族值&lt;/font&gt;" style="ellipse;whiteSpace=wrap;html=1;" parent="1" vertex="1">
          <mxGeometry x="540" y="200" width="70" height="40" as="geometry" />
        </mxCell>
        <mxCell id="5KNkTZIaE9ddwxYxKbXv-33" value="" style="endArrow=none;html=1;rounded=0;entryX=0.263;entryY=0.975;entryDx=0;entryDy=0;entryPerimeter=0;exitX=0.75;exitY=0;exitDx=0;exitDy=0;" parent="1" source="5KNkTZIaE9ddwxYxKbXv-30" target="5KNkTZIaE9ddwxYxKbXv-32" edge="1">
          <mxGeometry width="50" height="50" relative="1" as="geometry">
            <mxPoint x="550" y="360" as="sourcePoint" />
            <mxPoint x="600" y="310" as="targetPoint" />
          </mxGeometry>
        </mxCell>
        <mxCell id="5KNkTZIaE9ddwxYxKbXv-34" value="&lt;font style=&quot;font-size: 14px;&quot;&gt;天赋&lt;/font&gt;" style="ellipse;whiteSpace=wrap;html=1;" parent="1" vertex="1">
          <mxGeometry x="600" y="250" width="60" height="40" as="geometry" />
        </mxCell>
        <mxCell id="5KNkTZIaE9ddwxYxKbXv-35" value="" style="endArrow=none;html=1;rounded=0;entryX=1;entryY=0.5;entryDx=0;entryDy=0;exitX=0;exitY=0.5;exitDx=0;exitDy=0;" parent="1" source="5KNkTZIaE9ddwxYxKbXv-34" target="5KNkTZIaE9ddwxYxKbXv-30" edge="1">
          <mxGeometry width="50" height="50" relative="1" as="geometry">
            <mxPoint x="540" y="370" as="sourcePoint" />
            <mxPoint x="590" y="320" as="targetPoint" />
          </mxGeometry>
        </mxCell>
        <mxCell id="5KNkTZIaE9ddwxYxKbXv-36" value="&lt;font style=&quot;font-size: 14px;&quot;&gt;技能&lt;/font&gt;" style="ellipse;whiteSpace=wrap;html=1;" parent="1" vertex="1">
          <mxGeometry x="630" y="305" width="60" height="40" as="geometry" />
        </mxCell>
        <mxCell id="5KNkTZIaE9ddwxYxKbXv-37" value="" style="endArrow=none;html=1;rounded=0;entryX=0.75;entryY=1;entryDx=0;entryDy=0;exitX=0;exitY=0.5;exitDx=0;exitDy=0;" parent="1" source="5KNkTZIaE9ddwxYxKbXv-36" target="5KNkTZIaE9ddwxYxKbXv-30" edge="1">
          <mxGeometry width="50" height="50" relative="1" as="geometry">
            <mxPoint x="390" y="320" as="sourcePoint" />
            <mxPoint x="440" y="270" as="targetPoint" />
          </mxGeometry>
        </mxCell>
        <mxCell id="5KNkTZIaE9ddwxYxKbXv-38" value="&lt;font style=&quot;font-size: 14px;&quot;&gt;编号&lt;/font&gt;" style="ellipse;whiteSpace=wrap;html=1;" parent="1" vertex="1">
          <mxGeometry x="530" y="345" width="60" height="40" as="geometry" />
        </mxCell>
        <mxCell id="5KNkTZIaE9ddwxYxKbXv-39" value="" style="endArrow=none;html=1;rounded=0;entryX=0.25;entryY=1;entryDx=0;entryDy=0;exitX=0;exitY=0;exitDx=0;exitDy=0;" parent="1" source="5KNkTZIaE9ddwxYxKbXv-38" target="5KNkTZIaE9ddwxYxKbXv-30" edge="1">
          <mxGeometry width="50" height="50" relative="1" as="geometry">
            <mxPoint x="390" y="320" as="sourcePoint" />
            <mxPoint x="440" y="270" as="targetPoint" />
          </mxGeometry>
        </mxCell>
        <mxCell id="5KNkTZIaE9ddwxYxKbXv-40" value="&lt;font style=&quot;font-size: 14px;&quot;&gt;活动ID&lt;/font&gt;" style="ellipse;whiteSpace=wrap;html=1;" parent="1" vertex="1">
          <mxGeometry x="490" y="140" width="80" height="40" as="geometry" />
        </mxCell>
        <mxCell id="5KNkTZIaE9ddwxYxKbXv-41" value="" style="endArrow=none;html=1;rounded=0;entryX=0.5;entryY=1;entryDx=0;entryDy=0;exitX=0.5;exitY=0;exitDx=0;exitDy=0;" parent="1" source="5KNkTZIaE9ddwxYxKbXv-30" target="5KNkTZIaE9ddwxYxKbXv-40" edge="1">
          <mxGeometry width="50" height="50" relative="1" as="geometry">
            <mxPoint x="390" y="320" as="sourcePoint" />
            <mxPoint x="440" y="270" as="targetPoint" />
          </mxGeometry>
        </mxCell>
        <mxCell id="5KNkTZIaE9ddwxYxKbXv-42" value="&lt;span style=&quot;font-size: 14px;&quot;&gt;惩罚&lt;/span&gt;" style="rhombus;whiteSpace=wrap;html=1;" parent="1" vertex="1">
          <mxGeometry x="180" y="350" width="80" height="40" as="geometry" />
        </mxCell>
        <mxCell id="5KNkTZIaE9ddwxYxKbXv-43" value="&lt;font style=&quot;font-size: 10px;&quot;&gt;N&lt;/font&gt;" style="text;strokeColor=none;fillColor=none;html=1;fontSize=24;fontStyle=1;verticalAlign=middle;align=center;" parent="1" vertex="1">
          <mxGeometry x="180" y="300" width="50" height="30" as="geometry" />
        </mxCell>
        <mxCell id="5KNkTZIaE9ddwxYxKbXv-44" value="" style="endArrow=none;html=1;rounded=0;entryX=0.25;entryY=1;entryDx=0;entryDy=0;exitX=0.5;exitY=0;exitDx=0;exitDy=0;" parent="1" source="5KNkTZIaE9ddwxYxKbXv-42" target="5KNkTZIaE9ddwxYxKbXv-1" edge="1">
          <mxGeometry width="50" height="50" relative="1" as="geometry">
            <mxPoint x="390" y="320" as="sourcePoint" />
            <mxPoint x="440" y="270" as="targetPoint" />
          </mxGeometry>
        </mxCell>
        <mxCell id="5KNkTZIaE9ddwxYxKbXv-45" value="&lt;font style=&quot;font-size: 14px;&quot;&gt;玩家&lt;/font&gt;" style="rounded=0;whiteSpace=wrap;html=1;" parent="1" vertex="1">
          <mxGeometry x="230" y="470" width="60" height="30" as="geometry" />
        </mxCell>
        <mxCell id="5KNkTZIaE9ddwxYxKbXv-46" value="" style="endArrow=none;html=1;rounded=0;entryX=0.5;entryY=1;entryDx=0;entryDy=0;exitX=0.5;exitY=0;exitDx=0;exitDy=0;" parent="1" source="5KNkTZIaE9ddwxYxKbXv-45" target="5KNkTZIaE9ddwxYxKbXv-42" edge="1">
          <mxGeometry width="50" height="50" relative="1" as="geometry">
            <mxPoint x="390" y="320" as="sourcePoint" />
            <mxPoint x="440" y="270" as="targetPoint" />
          </mxGeometry>
        </mxCell>
        <mxCell id="5KNkTZIaE9ddwxYxKbXv-47" value="&lt;font style=&quot;font-size: 10px;&quot;&gt;1&lt;/font&gt;" style="text;strokeColor=none;fillColor=none;html=1;fontSize=24;fontStyle=1;verticalAlign=middle;align=center;" parent="1" vertex="1">
          <mxGeometry x="230" y="410" width="46" height="20" as="geometry" />
        </mxCell>
        <mxCell id="5KNkTZIaE9ddwxYxKbXv-48" value="&lt;font style=&quot;font-size: 14px;&quot;&gt;性别&lt;/font&gt;" style="ellipse;whiteSpace=wrap;html=1;" parent="1" vertex="1">
          <mxGeometry x="100" y="490" width="60" height="40" as="geometry" />
        </mxCell>
        <mxCell id="5KNkTZIaE9ddwxYxKbXv-49" value="" style="endArrow=none;html=1;rounded=0;entryX=0;entryY=0.5;entryDx=0;entryDy=0;exitX=1;exitY=0.5;exitDx=0;exitDy=0;" parent="1" source="5KNkTZIaE9ddwxYxKbXv-48" target="5KNkTZIaE9ddwxYxKbXv-45" edge="1">
          <mxGeometry width="50" height="50" relative="1" as="geometry">
            <mxPoint x="98.33999999999997" y="585" as="sourcePoint" />
            <mxPoint x="148.33999999999997" y="535" as="targetPoint" />
          </mxGeometry>
        </mxCell>
        <mxCell id="5KNkTZIaE9ddwxYxKbXv-50" value="&lt;font style=&quot;font-size: 14px;&quot;&gt;账号&lt;/font&gt;" style="ellipse;whiteSpace=wrap;html=1;" parent="1" vertex="1">
          <mxGeometry x="190" y="530" width="60" height="35" as="geometry" />
        </mxCell>
        <mxCell id="5KNkTZIaE9ddwxYxKbXv-51" value="" style="endArrow=none;html=1;rounded=0;entryX=0.25;entryY=1;entryDx=0;entryDy=0;exitX=0.5;exitY=0;exitDx=0;exitDy=0;" parent="1" source="5KNkTZIaE9ddwxYxKbXv-50" target="5KNkTZIaE9ddwxYxKbXv-45" edge="1">
          <mxGeometry width="50" height="50" relative="1" as="geometry">
            <mxPoint x="390" y="420" as="sourcePoint" />
            <mxPoint x="440" y="370" as="targetPoint" />
          </mxGeometry>
        </mxCell>
        <mxCell id="5KNkTZIaE9ddwxYxKbXv-52" value="&lt;font style=&quot;font-size: 14px;&quot;&gt;游戏ID&lt;/font&gt;" style="ellipse;whiteSpace=wrap;html=1;" parent="1" vertex="1">
          <mxGeometry x="270" y="525" width="70" height="40" as="geometry" />
        </mxCell>
        <mxCell id="5KNkTZIaE9ddwxYxKbXv-53" value="" style="endArrow=none;html=1;rounded=0;exitX=0.5;exitY=1;exitDx=0;exitDy=0;entryX=0.406;entryY=0.03;entryDx=0;entryDy=0;entryPerimeter=0;" parent="1" source="5KNkTZIaE9ddwxYxKbXv-45" target="5KNkTZIaE9ddwxYxKbXv-52" edge="1">
          <mxGeometry width="50" height="50" relative="1" as="geometry">
            <mxPoint x="390" y="420" as="sourcePoint" />
            <mxPoint x="440" y="370" as="targetPoint" />
          </mxGeometry>
        </mxCell>
        <mxCell id="5KNkTZIaE9ddwxYxKbXv-54" value="&lt;font style=&quot;font-size: 14px;&quot;&gt;天梯段位&lt;/font&gt;" style="ellipse;whiteSpace=wrap;html=1;" parent="1" vertex="1">
          <mxGeometry x="349" y="500" width="80" height="40" as="geometry" />
        </mxCell>
        <mxCell id="5KNkTZIaE9ddwxYxKbXv-55" value="" style="endArrow=none;html=1;rounded=0;entryX=1;entryY=0.5;entryDx=0;entryDy=0;exitX=0;exitY=0;exitDx=0;exitDy=0;" parent="1" source="5KNkTZIaE9ddwxYxKbXv-54" target="5KNkTZIaE9ddwxYxKbXv-45" edge="1">
          <mxGeometry width="50" height="50" relative="1" as="geometry">
            <mxPoint x="390" y="420" as="sourcePoint" />
            <mxPoint x="440" y="370" as="targetPoint" />
          </mxGeometry>
        </mxCell>
        <mxCell id="H2StNjefYZde3f5sjy-C-1" value="&lt;font style=&quot;font-size: 14px;&quot;&gt;获取状态&lt;/font&gt;" style="ellipse;whiteSpace=wrap;html=1;" vertex="1" parent="1">
          <mxGeometry x="610" y="360" width="70" height="40" as="geometry" />
        </mxCell>
        <mxCell id="H2StNjefYZde3f5sjy-C-2" value="" style="endArrow=none;html=1;rounded=0;entryX=0.5;entryY=1;entryDx=0;entryDy=0;exitX=0;exitY=0;exitDx=0;exitDy=0;" edge="1" parent="1" source="H2StNjefYZde3f5sjy-C-1" target="5KNkTZIaE9ddwxYxKbXv-30">
          <mxGeometry width="50" height="50" relative="1" as="geometry">
            <mxPoint x="390" y="340" as="sourcePoint" />
            <mxPoint x="440" y="290" as="targetPoint" />
          </mxGeometry>
        </mxCell>
        <mxCell id="H2StNjefYZde3f5sjy-C-3" value="&lt;font style=&quot;font-size: 14px;&quot;&gt;属于&lt;/font&gt;" style="rhombus;whiteSpace=wrap;html=1;" vertex="1" parent="1">
          <mxGeometry x="420" y="185" width="60" height="30" as="geometry" />
        </mxCell>
        <mxCell id="H2StNjefYZde3f5sjy-C-4" value="" style="endArrow=none;html=1;rounded=0;entryX=0.5;entryY=1;entryDx=0;entryDy=0;exitX=0.25;exitY=0;exitDx=0;exitDy=0;" edge="1" parent="1" source="5KNkTZIaE9ddwxYxKbXv-30" target="H2StNjefYZde3f5sjy-C-3">
          <mxGeometry width="50" height="50" relative="1" as="geometry">
            <mxPoint x="390" y="340" as="sourcePoint" />
            <mxPoint x="440" y="290" as="targetPoint" />
          </mxGeometry>
        </mxCell>
        <mxCell id="H2StNjefYZde3f5sjy-C-6" value="&lt;font style=&quot;font-size: 10px;&quot;&gt;&lt;span style=&quot;white-space: pre;&quot;&gt;	&lt;/span&gt;M&lt;span style=&quot;white-space: pre;&quot;&gt;	&lt;/span&gt;&lt;/font&gt;" style="text;strokeColor=none;fillColor=none;html=1;fontSize=24;fontStyle=1;verticalAlign=middle;align=center;" vertex="1" parent="1">
          <mxGeometry x="450" y="220" width="40" height="10" as="geometry" />
        </mxCell>
        <mxCell id="H2StNjefYZde3f5sjy-C-8" value="&lt;font style=&quot;font-size: 14px;&quot;&gt;系别&lt;/font&gt;" style="rounded=0;whiteSpace=wrap;html=1;" vertex="1" parent="1">
          <mxGeometry x="349" y="130" width="50" height="30" as="geometry" />
        </mxCell>
        <mxCell id="H2StNjefYZde3f5sjy-C-9" value="" style="endArrow=none;html=1;rounded=0;entryX=0.5;entryY=1;entryDx=0;entryDy=0;exitX=0;exitY=0.5;exitDx=0;exitDy=0;" edge="1" parent="1" source="H2StNjefYZde3f5sjy-C-3" target="H2StNjefYZde3f5sjy-C-8">
          <mxGeometry width="50" height="50" relative="1" as="geometry">
            <mxPoint x="390" y="340" as="sourcePoint" />
            <mxPoint x="440" y="290" as="targetPoint" />
          </mxGeometry>
        </mxCell>
      </root>
    </mxGraphModel>
  </diagram>
</mxfile>
